<?xml version="1.0" encoding="UTF-8" standalone="no"?>
<svg
   xmlns:dc="http://purl.org/dc/elements/1.1/"
   xmlns:cc="http://creativecommons.org/ns#"
   xmlns:rdf="http://www.w3.org/1999/02/22-rdf-syntax-ns#"
   xmlns:svg="http://www.w3.org/2000/svg"
   xmlns="http://www.w3.org/2000/svg"
   xmlns:sodipodi="http://sodipodi.sourceforge.net/DTD/sodipodi-0.dtd"
   xmlns:inkscape="http://www.inkscape.org/namespaces/inkscape"
   width="60mm"
   height="60mm"
   viewBox="0 0 60 60"
   version="1.1"
   id="svg8"
   inkscape:version="1.0.1 (3bc2e813f5, 2020-09-07)"
   sodipodi:docname="drawing-2.svg">
  <defs
     id="defs2" />
  <sodipodi:namedview
     id="base"
     pagecolor="#ffffff"
     bordercolor="#666666"
     borderopacity="1.0"
     inkscape:pageopacity="0.0"
     inkscape:pageshadow="2"
     inkscape:zoom="0.35"
     inkscape:cx="400"
     inkscape:cy="560"
     inkscape:document-units="mm"
     inkscape:current-layer="layer1"
     inkscape:document-rotation="0"
     showgrid="false"
     inkscape:window-width="1920"
     inkscape:window-height="974"
     inkscape:window-x="-11"
     inkscape:window-y="-11"
     inkscape:window-maximized="1" />
  <metadata
     id="metadata5">
    <rdf:RDF>
      <cc:Work
         rdf:about="">
        <dc:format>image/svg+xml</dc:format>
        <dc:type
           rdf:resource="http://purl.org/dc/dcmitype/StillImage" />
        <dc:title></dc:title>
      </cc:Work>
    </rdf:RDF>
  </metadata>
  <g
     inkscape:label="Layer 1"
     inkscape:groupmode="layer"
     id="layer1">
    <path
       style="fill:#5271FF;stroke-width:1"
       d="M 19.217708,59.627085 C 16.766769,59.212962 13.357018,58.041039 11.345524,56.921425 5.6183195,53.733604 2.2041361,49.14067 0.59717904,42.462204 0.08367375,40.328098 0.01377206,39.57657 9.7242348e-4,36.052286 -0.01081313,32.807135 0.08063645,31.539134 0.48958673,29.277354 1.417402,24.145917 3.1999894,19.021458 6.4640938,12.102264 7.438262,10.037239 9.1149558,6.4694519 10.190085,4.1738358 L 12.144858,0 H 36.072423 60 l -7.5e-5,22.683905 -8.2e-5,22.683892 -4.20935,2.821738 c -8.565912,5.742131 -14.222777,8.538802 -20.963123,10.363853 -5.253586,1.422487 -11.146418,1.827821 -15.609662,1.073697 z"
       id="path44" />
  </g>
</svg>
